# vtk DataFile Version 2.0
ball, Created by Gmsh 4.13.1 
ASCII
DATASET UNSTRUCTURED_GRID
POINTS 199 double
6.12323399573677e-17 -1.49975978266186e-32 1
6.12323399573677e-17 -1.49975978266186e-32 -1
0.3090169943749464 -7.568733460868275e-17 -0.9510565162951539
0.5877852522924722 -1.439658655611991e-16 -0.8090169943749481
0.8090169943749468 -1.981520145234182e-16 -0.587785252292474
0.951056516295153 -2.329416636978183e-16 -0.3090169943749493
1 -2.449293598294706e-16 -2.021286199229721e-15
0.9510565162951542 -2.329416636978186e-16 0.3090169943749455
0.8090169943749491 -1.981520145234187e-16 0.5877852522924708
0.5877852522924755 -1.439658655611999e-16 0.8090169943749457
0.3090169943749502 -7.568733460868369e-17 0.9510565162951526
0.8477521313068709 0.2742425021963105 -0.453990499739548
0.6705897005191519 0.2591446683808205 0.6950924358726893
0.9524932903827706 -0.2692286664514896 0.1423813784754014
0.4371526982934312 -0.2698172279304548 0.8579604780447041
0.6875541030448956 -0.2712240402887288 -0.6735776683913943
0.9510565162951548 0.2698172279021015 0.1506325540504094
0.1830367297221623 -0.2834753671109182 -0.9413497075019178
0.1469882908031027 0.3075474061370187 0.9401111824381062
0.8579604780797948 0.2698172279021013 0.4371526982420622
0.6756810092091828 0.5148370084068443 0.5276343701548935
0.4662013352792955 0.49696581909013 0.73190251375431
0.9496485342515378 0.2736952729941092 -0.1525075700894416
0.8058998354958044 0.5249348201279367 -0.2738044736031284
0.150632554048226 0.2698172278973023 -0.9510565162968621
0.6680041553528756 0.5101366559711576 -0.5417850502421196
0.1506325540504105 -0.2698172279020944 0.9510565162951565
0.468530318753802 0.2724944249970854 -0.840372613043743
0.3046672932658639 0.5083913813788095 -0.8054291053555228
0.5843806319455991 0.7324650153931548 -0.3492767931483107
0.7086293527331123 0.7054897688246279 -0.01134136362274781
0.4196808472429238 0.6797637518587978 -0.6014891753941317
0.867266723014683 -0.2665672680347351 0.4204644131955413
0.8191996957304267 -0.5187687476999171 0.2445216655534556
0.2736412377098018 -0.5340443159876739 0.7999482118149307
-0.04299359536895871 -0.4992005973804115 0.8654191552838951
0.4439746313230927 0.7247894307974858 0.5268460949326478
0.4453533609216027 0.8853942133587197 -0.1331820966448818
-0.1586564532123488 -0.2249863498613177 0.9613580354010458
0.2022262899537901 0.6737578794240136 0.7107424621939947
0.1630072218608554 0.8579623240939851 0.4871645472080798
-0.08822889554650153 0.7704980829155091 0.631306871667155
-0.1229210058004697 0.9186091033515761 0.3755632324557534
-0.3704523557379945 0.7787947257920407 0.5062053211955311
-0.3911319223138246 0.8945610184274867 0.2162785325848829
-0.3526037618333017 -0.4480301595930123 0.8215470547911813
-0.2218863087697657 -0.6877174909129424 0.6912388289679156
-0.6195582452749252 0.7127695955021898 0.3287964179237666
-0.5121057597631059 -0.5971374438268112 0.6173933624500947
-0.3681169737105934 -0.8157828630163818 0.4460809501367993
-0.6370860800819296 -0.6910460910003141 0.341433195045571
-0.6143674921827681 0.7886478617206507 0.0242308636350786
0.3050992605702651 0.8629232380420141 -0.4028373449005975
-0.4678181371111837 -0.8707452969905766 0.1514886740275138
-0.7075367647854289 -0.7054673847436392 0.04132185305547984
-0.8128628045851006 0.5686346693886986 0.1261295908629295
-0.7686042515007752 0.619062419520126 -0.1612737589095657
-0.001910408020746795 0.540824949167889 -0.8411330006002288
-0.5088863010586152 -0.846808357555313 -0.1547589679771531
-0.7188349608135493 -0.6426997789295876 -0.2649779109209718
-0.2476879945111744 -0.9679557711112885 -0.04137973595110796
-0.1610079374508763 0.2677300388990267 -0.9499458249547393
-0.316703920573696 0.5103178546237179 -0.799546317573595
-0.4578369111996307 0.2301785845813515 -0.8587218303637721
-0.4504336057259902 -0.1458760888767643 0.8808119739914425
-0.7437480963481642 -0.4249118898897475 0.5160316414802536
-0.881588610723349 -0.4682842567588378 -0.05925686723661908
-0.266868136791911 -0.89951811872406 -0.3459025175571029
0.01079806320371037 -0.9759193766928267 -0.2178641136730261
-0.07946843261150209 -0.8649628480416052 0.4955038241285594
-0.5524616790096126 0.7818720542893295 -0.2888982242023363
-0.8528516577626923 -0.3769205311018027 -0.3613515782245351
-0.6533507570388116 -0.5285295416182424 -0.5420233499708499
-0.7810976323416845 0.4611767993691957 0.4209542118494591
-0.9726078504628821 -0.1804025652547672 -0.1465908717058172
-0.0056146907602836 -0.8583408027423067 -0.5130492584492827
0.2720128445421701 -0.8875722678831028 -0.3717855318445335
0.8658702332423801 -0.4981617724206101 -0.04586488508153717
0.2797246915414326 -0.9587324569624386 -0.05085442860574026
-0.3258496913454249 0.5818393979989441 0.7451744048115968
-0.8975731522646407 -0.07597232306847149 -0.4342702412798923
-0.1472114526471162 0.7361272959497885 -0.6606401383258349
-0.07539569999148085 0.9952216560268019 0.06204308017873258
-0.9323223404042169 0.2833615414903619 0.2246804183443883
-0.8596424800606142 0.1648697521522206 0.4835625826100503
0.2488236104214234 -0.7273823327127579 -0.6395324487109271
0.509684753204572 -0.7245827877698746 -0.4638978724012769
-0.2918347222596755 -0.01638029470807956 -0.9563284900225939
-0.6166614376453821 -0.09014317283221475 -0.782050432972754
-0.3822954378321919 -0.3039492634320309 -0.8726196442160917
-0.5888743186296416 0.4460189752428279 -0.6740134350158111
-0.05494539969953956 -0.694303587745142 -0.7175817243325542
0.5434631658195275 -0.4992005974388206 0.6748678025466479
0.3475170095563381 -0.7279895430358518 0.590984901075714
0.6882777869292052 -0.7245321562346221 0.03642585073604945
-0.9665215035465945 0.1332059589365578 -0.2192996937659111
-0.2463206017970552 0.07530719424272782 0.9662582406508234
-0.520629972877321 0.1561867632462163 0.8393748425634583
-0.7003844462224091 -0.06525764146612893 0.7107763837663765
-0.9642171362673712 -0.222302986440252 0.1444530939374261
-0.6736329097183696 0.3142586388376619 0.6689246675525301
0.379960152244649 0.8796917148531718 0.2859593843973461
-0.8311250426057257 0.2498495522091112 -0.4967960998382911
0.1411011127176694 0.9737290204817569 -0.1787240069533858
-0.8814838676269647 -0.1610193356747435 0.4439132400056028
0.590583839206852 -0.7196309055123794 0.3651603602516682
0.307081131258538 -0.9066743123532132 0.2892107711407113
-0.004047034660059018 0.9032587043194498 -0.4290773060668778
0.1630540832512017 0.7413071780717604 -0.6510583949803532
0.4710759007376196 -0.5197010013384945 -0.7127400402334686
0.7123373835569854 -0.6506131044952058 -0.263207219213871
0.8490824010823629 -0.4315659428036503 -0.3046471946107595
0.4278242477509219 -0.2630486925030857 -0.8647379940818923
0.6641898775751579 0.2499169696374239 -0.7045518538858184
-0.2907094560795685 0.8701028927853699 -0.3980062412983651
0.8224136344726172 0.5170345209644532 0.2372996375146808
0.07653482009747754 -0.7308721022545126 0.6782096957864256
-0.5640530869788173 -0.3323490752867683 0.7559022471362926
-0.1840328922559391 -0.9524180860391561 0.24296436766206
0.04375652677310898 -0.9949873931738938 0.08991915140710166
-0.8429850047213876 -0.482868427867335 0.2370956836043427
-0.4899164912323746 -0.7467988853649854 -0.4497479921424599
-0.393137228345577 -0.5965970120873978 -0.6996535748905647
-0.7525345731326913 -0.2632127423411657 -0.6036644502612698
-0.9976783026565982 0.03981046447265188 0.05525514751334113
-0.9288513210900829 0.3664975510625472 -0.0539885948544995
-0.5531759676294047 0.5757268281082711 0.6021087677767707
-0.369386077477763 0.9255691816019548 -0.08291933329616025
0.1286489977797895 0.9588101356436683 0.2532440703298427
-0.03483432984351525 0.5296386558532069 0.8475077956516751
0.6251532796766769 0.7294058211165619 0.2777598333646691
0.7003378940968281 -0.2604308950589374 0.6646070891818869
0.8694868322703672 0.4936386808033733 -0.01770596857412596
0.956229639061638 -0.2414289509004744 -0.1653388612732823
-0.6964859704986822 0.5727809358858479 -0.4322375416183108
-0.4492669145980359 0.6857319169378009 -0.5726525801394509
0.4089455657191476 0.2085717575751068 0.8884038193415634
-0.2778906454620877 0.3513661585706463 0.8940462022602477
-0.6886960558380659 0.1720520394818471 -0.7043407118598417
0.1994651672792344 -0.5207063445914718 -0.8301075531185429
-0.08728696176100943 -0.253013597013773 -0.9635170502034119
0.5052235777173315 -0.8436588737293156 -0.1816283053278924
-0.1278126578379317 0.9701921055786615 -0.2058912401469455
0.6890008559205228 -0.5045269423782239 -0.520317580863137
-0.2556429767908252 -0.7847120993464266 -0.5646889316755282
0.4817415416841638 -0.8711295678586074 0.09517543285029439
-0.1773809701119726 -0.5057197214387201 -0.844265097460554
0.7385380508666529 -0.4770293247399989 0.4764499666913472
-0.8680179464005973 0.4077488263596442 -0.283347382780965
0.8675997141998528 -0.2058898527325878 -0.45263683506989
0.05498561546368889 -0.9429790377300636 0.3282790223175441
-0.9564945633299758 0.02252048916711516 0.2908796622108063
0.272745780555548 0.9608329339962121 0.04908983741443337
-0.5710950477710011 -0.3905700319348626 -0.7220148866649762
-0.4948759428189508 0.4128511743613459 0.76462520822133
0.5315518273508776 0.842103352214795 0.09118442316836665
0.5169313380471066 0.4559164531706433 -0.7245151340538917
0.2513752095582405 0.4802034272138788 0.8403660943372213
-0.7680159418785185 -0.0462249724704893 -0.6387603345078298
0.1539042737560581 -0.8591825555933286 0.4879741905918151
-6.245004513516506e-16 4.329869796038111e-15 -2.498001805406602e-15
0.01842885550915784 -0.4507870942457904 0.2251252521795954
-0.181492953210473 -0.4219669225432645 -0.2307347571305527
0.2734576887177599 0.2904190183384712 -0.3122561995797553
0.1207493883639487 0.457829888041143 0.1796439896529424
0.4131979806167972 -0.2764793924127181 -0.09795519988706297
-0.3011182141862566 0.2276084169594946 0.3361325716899036
0.228634980160807 -0.04718475701204406 0.4514431038170658
-0.3698323175218213 0.03211570280425509 -0.3404209999465702
-0.4153078795406203 -0.2204427770972482 0.1572275554939652
0.4866454707248797 0.1567170120208524 0.09757231369842084
0.1360156342678826 -0.146733743243699 -0.4765203661403706
-0.2207408466906251 0.4550346990257554 -0.1615950389546323
-0.1744826113848032 -0.1942984980962683 0.517556406919494
-0.0894366862696843 0.2852402386357957 -0.5211667782971635
0.4031131988895132 -0.3676726555210522 0.2902656237663447
-0.5698325114344681 0.1496491275082332 0.01594071062523249
0.163548408027047 -0.5849472302627321 -0.1196799914453871
0.06571635560084835 0.3025406269005439 0.5394348817654901
0.5628520644237895 0.03020483834933523 -0.2867874511243996
0.123790760925365 0.6003819127301258 -0.1660690829341782
-0.5282238961313721 -0.2784033138906257 -0.1974952525477435
-0.2170137796160305 -0.2340555691006694 -0.5482737471109317
-0.2991196300028055 -0.556484131057145 0.08502702496344341
0.413466251580901 0.2663938976890436 0.4371517548740146
-0.4549399397199273 0.4775255747468304 0.1112152418779767
0.5901899912937453 -0.07845393431002537 0.3304529075563439
0.0844112089373302 -0.4897207879166439 -0.4451860543965659
0.4394989211620626 0.4753777761569691 -0.0561155819021804
-0.1800184387608265 0.5887503039699411 0.2889998965236686
0.1573029867125504 -0.3713161189058156 0.5250739787182113
0.2157365285689064 0.156306191123968 -0.6283730942369009
0.6803067586784578 -0.1025652220682685 0.007834878481441243
-0.2533638110521692 -0.5028039371547499 0.4137796115407694
0.3951987991113034 -0.3578907839487799 -0.4256702550345859
-0.54354469743083 0.3146691867742434 -0.27741777272327
0.09588453033353908 -0.2597987398468397 -0.1728956846668968
-0.5801053397624165 0.02385698613250617 0.3375324200066415
0.3035176129495899 -0.1007815241249977 0.1454192267137025

CELLS 974 4528
1 0
1 1
2 1 2
2 2 3
2 3 4
2 4 5
2 5 6
2 6 7
2 7 8
2 8 9
2 9 10
2 10 0
3 0 26 10
3 10 136 0
3 18 96 0
3 0 136 18
3 0 38 26
3 0 96 38
3 2 17 1
3 1 24 2
3 17 140 1
3 1 61 24
3 1 87 61
3 1 140 87
3 2 27 3
3 3 112 2
3 2 112 17
3 24 27 2
3 4 15 3
3 3 113 4
3 15 112 3
3 27 113 3
3 4 11 5
3 5 149 4
3 4 113 11
3 4 149 15
3 5 22 6
3 6 133 5
3 11 22 5
3 133 149 5
3 7 13 6
3 6 16 7
3 13 133 6
3 6 22 16
3 7 19 8
3 8 32 7
3 7 32 13
3 16 19 7
3 8 12 9
3 9 131 8
3 8 19 12
3 8 131 32
3 10 14 9
3 9 136 10
3 12 136 9
3 14 131 9
3 10 26 14
3 11 23 22
3 11 25 23
3 11 113 25
3 19 20 12
3 20 21 12
3 21 136 12
3 32 33 13
3 33 77 13
3 77 133 13
3 26 34 14
3 34 92 14
3 92 131 14
3 109 112 15
3 15 143 109
3 15 149 143
3 16 115 19
3 22 132 16
3 16 132 115
3 112 139 17
3 139 140 17
3 18 137 96
3 129 137 18
3 18 157 129
3 136 157 18
3 19 115 20
3 20 36 21
3 20 130 36
3 115 130 20
3 36 39 21
3 39 157 21
3 21 157 136
3 23 132 22
3 25 29 23
3 29 30 23
3 30 132 23
3 24 28 27
3 24 57 28
3 24 61 57
3 25 31 29
3 25 156 31
3 113 156 25
3 26 35 34
3 26 38 35
3 28 156 27
3 27 156 113
3 28 108 31
3 31 156 28
3 57 108 28
3 29 37 30
3 31 52 29
3 29 52 37
3 37 155 30
3 30 130 115
3 115 132 30
3 30 155 130
3 31 108 52
3 32 147 33
3 131 147 32
3 33 94 77
3 33 105 94
3 33 147 105
3 35 116 34
3 34 93 92
3 34 116 93
3 38 45 35
3 45 46 35
3 46 116 35
3 36 40 39
3 36 101 40
3 36 130 101
3 52 103 37
3 103 152 37
3 152 155 37
3 38 64 45
3 38 96 64
3 40 41 39
3 41 129 39
3 129 157 39
3 40 42 41
3 40 128 42
3 101 128 40
3 42 43 41
3 43 79 41
3 79 129 41
3 42 44 43
3 42 82 44
3 42 128 82
3 44 47 43
3 47 126 43
3 43 126 79
3 44 51 47
3 44 127 51
3 82 127 44
3 45 48 46
3 45 117 48
3 64 117 45
3 48 49 46
3 49 69 46
3 69 116 46
3 51 55 47
3 55 73 47
3 73 126 47
3 48 50 49
3 48 65 50
3 48 117 65
3 50 53 49
3 53 118 49
3 49 118 69
3 50 54 53
3 50 120 54
3 65 120 50
3 51 56 55
3 51 70 56
3 51 127 70
3 52 107 103
3 52 108 107
3 54 58 53
3 58 60 53
3 60 118 53
3 54 59 58
3 54 66 59
3 54 120 66
3 56 125 55
3 55 83 73
3 55 125 83
3 70 134 56
3 56 148 125
3 134 148 56
3 61 62 57
3 62 81 57
3 81 108 57
3 59 121 58
3 58 67 60
3 58 121 67
3 66 71 59
3 71 72 59
3 72 121 59
3 67 68 60
3 68 119 60
3 60 119 118
3 61 63 62
3 61 87 63
3 63 90 62
3 62 135 81
3 90 135 62
3 87 88 63
3 88 138 63
3 63 138 90
3 96 97 64
3 97 98 64
3 98 117 64
3 98 104 65
3 65 117 98
3 104 120 65
3 66 74 71
3 66 99 74
3 66 120 99
3 67 75 68
3 67 144 75
3 121 144 67
3 75 76 68
3 76 78 68
3 78 119 68
3 69 159 116
3 118 150 69
3 150 159 69
3 70 127 114
3 114 135 70
3 70 135 134
3 71 123 72
3 74 80 71
3 80 123 71
3 72 122 121
3 72 153 122
3 123 153 72
3 83 84 73
3 84 100 73
3 100 126 73
3 74 95 80
3 74 124 95
3 99 124 74
3 75 85 76
3 75 91 85
3 75 144 91
3 76 141 78
3 85 86 76
3 86 141 76
3 94 110 77
3 110 111 77
3 111 133 77
3 106 119 78
3 78 145 106
3 141 145 78
3 126 154 79
3 79 137 129
3 79 154 137
3 95 102 80
3 102 158 80
3 80 158 123
3 107 108 81
3 81 114 107
3 81 135 114
3 103 142 82
3 82 152 103
3 82 142 127
3 128 152 82
3 83 151 84
3 83 125 124
3 124 151 83
3 98 100 84
3 84 104 98
3 84 151 104
3 85 109 86
3 91 139 85
3 85 139 109
3 109 143 86
3 110 141 86
3 86 143 110
3 87 89 88
3 87 140 89
3 89 153 88
3 88 153 123
3 123 158 88
3 88 158 138
3 89 146 122
3 122 153 89
3 140 146 89
3 102 134 90
3 90 138 102
3 134 135 90
3 91 144 122
3 122 146 91
3 91 146 139
3 93 105 92
3 105 147 92
3 92 147 131
3 93 106 105
3 93 159 106
3 116 159 93
3 105 145 94
3 94 141 110
3 94 145 141
3 95 148 102
3 124 125 95
3 125 148 95
3 96 137 97
3 97 100 98
3 97 154 100
3 137 154 97
3 99 120 104
3 104 151 99
3 99 151 124
3 100 154 126
3 101 152 128
3 130 155 101
3 101 155 152
3 102 148 134
3 138 158 102
3 107 142 103
3 106 145 105
3 106 150 119
3 106 159 150
3 114 142 107
3 109 139 112
3 110 143 111
3 111 149 133
3 143 149 111
3 127 142 114
3 119 150 118
3 122 144 121
3 139 146 140
4 160 164 163 180
4 163 179 160 196
4 160 172 164 180
4 160 163 172 180
4 163 160 179 198
4 160 171 168 174
4 3 179 171 194
4 174 182 1 191
4 160 163 171 174
4 162 169 168 181
4 160 167 166 173
4 3 171 179 191
4 160 166 164 172
4 163 164 160 170
4 160 172 163 174
4 163 179 170 198
4 166 167 160 178
4 164 160 167 178
4 163 171 179 196
4 60 177 162 183
4 106 161 175 177
4 171 182 174 191
4 160 166 172 176
4 94 175 165 177
4 171 1 182 191
4 172 174 81 180
4 162 160 168 169
4 164 166 160 178
4 161 162 160 196
4 108 174 163 180
4 160 172 168 176
4 166 173 97 197
4 81 174 108 180
4 94 145 175 177
4 160 164 167 198
4 23 163 25 179
4 28 163 108 174
4 160 168 172 174
4 160 162 161 169
4 118 150 119 161
4 106 159 93 161
4 130 36 164 184
4 106 119 150 161
4 160 161 167 173
4 58 121 59 162
4 142 82 172 180
4 167 164 184 198
4 80 168 176 181
4 106 175 145 177
4 170 184 164 198
4 74 176 99 181
4 130 184 164 188
4 36 101 130 164
4 75 162 67 177
4 22 179 170 188
4 119 161 177 183
4 163 170 160 198
4 118 69 150 161
4 150 159 106 161
4 150 69 159 161
4 172 180 82 189
4 95 176 74 181
4 80 95 74 181
4 99 176 169 181
4 93 161 159 190
4 142 82 127 172
4 23 25 11 179
4 36 178 164 184
4 164 170 163 188
4 160 168 171 196
4 161 169 162 183
4 163 174 28 191
4 118 161 119 183
4 68 75 67 177
4 23 163 179 188
4 87 1 174 182
4 160 169 161 173
4 59 162 121 181
4 26 173 167 190
4 162 177 75 187
4 108 28 31 163
4 164 172 166 189
4 132 22 170 188
4 72 181 162 182
4 166 173 167 178
4 96 173 166 178
4 165 179 111 194
4 3 15 179 194
4 80 176 95 181
4 113 25 156 163
4 164 178 40 189
4 25 163 113 179
4 168 181 123 182
4 80 176 168 195
4 161 160 167 198
4 107 81 108 180
4 60 162 67 183
4 167 175 131 190
4 108 163 31 180
4 168 169 160 176
4 22 23 179 188
4 141 177 110 194
4 81 172 135 174
4 119 177 60 183
4 33 165 175 192
4 111 179 165 192
4 33 77 165 192
4 110 177 165 194
4 116 159 69 161
4 82 127 172 189
4 160 166 169 173
4 128 164 82 180
4 80 95 176 195
4 96 97 166 173
4 163 160 171 196
4 72 121 162 181
4 33 165 94 175
4 135 174 172 195
4 144 67 75 162
4 153 123 181 182
4 41 40 178 189
4 33 77 94 165
4 160 170 164 198
4 130 164 101 188
4 14 167 131 190
4 72 121 122 162
4 170 184 115 188
4 82 164 128 189
4 25 163 23 188
4 168 182 171 196
4 144 162 75 187
4 86 141 110 194
4 3 171 112 194
4 65 173 117 193
4 130 115 184 188
4 160 162 168 196
4 72 162 122 182
4 93 106 161 175
4 113 163 156 191
4 172 176 166 185
4 54 66 169 181
4 93 175 161 190
4 167 164 178 184
4 166 160 169 176
4 39 41 40 178
4 168 162 182 196
4 131 175 167 186
4 79 178 166 189
4 54 181 169 183
4 130 101 155 188
4 28 156 31 163
4 67 162 58 183
4 98 97 64 173
4 164 82 180 189
4 165 179 171 196
4 106 119 161 177
4 113 179 163 191
4 39 178 36 184
4 114 135 81 172
4 127 185 172 189
4 86 177 141 194
4 116 159 161 190
4 149 111 179 194
4 90 168 174 195
4 101 36 40 164
4 3 179 113 191
4 142 172 114 180
4 152 164 128 180
4 132 23 22 188
4 99 169 66 181
4 123 168 158 181
4 118 69 161 193
4 169 173 65 193
4 25 113 11 179
4 63 168 88 182
4 90 168 63 174
4 90 174 135 195
4 22 16 132 170
4 107 142 114 180
4 63 90 138 168
4 31 156 25 163
4 98 97 173 197
4 172 185 166 189
4 144 122 121 162
4 153 181 72 182
4 31 163 29 180
4 167 173 0 178
4 67 121 58 162
4 10 0 136 167
4 153 123 72 181
4 59 181 54 183
4 112 171 3 191
4 90 138 168 195
4 170 179 22 192
4 40 128 101 164
4 169 176 99 197
4 126 79 154 166
4 137 97 154 166
4 80 123 158 181
4 168 174 171 182
4 88 168 123 182
4 110 77 111 165
4 119 68 60 177
4 128 164 40 189
4 131 167 9 186
4 101 128 152 164
4 118 161 183 193
4 74 124 99 176
4 92 131 175 190
4 116 161 69 193
4 9 131 14 167
4 60 67 58 183
4 156 163 28 191
4 57 28 108 174
4 94 141 145 177
4 111 165 77 192
4 52 108 31 180
4 149 179 111 192
4 58 59 54 183
4 118 119 60 183
4 16 170 22 192
4 61 87 1 174
4 164 180 172 189
4 79 41 178 189
4 73 126 166 185
4 79 166 126 189
4 165 175 161 177
4 110 165 111 194
4 152 164 180 188
4 144 121 67 162
4 149 111 133 192
4 52 31 29 180
4 144 91 122 187
4 77 110 94 165
4 10 14 26 167
4 19 170 16 186
4 90 62 135 174
4 3 112 15 194
4 92 14 131 190
4 33 175 186 192
4 3 15 4 179
4 80 158 168 181
4 66 120 54 169
4 7 19 16 186
4 22 23 11 179
4 115 170 19 184
4 161 175 165 198
4 167 184 9 186
4 166 73 185 197
4 166 185 126 189
4 137 96 166 178
4 176 185 73 197
4 79 137 154 166
4 0 167 26 173
4 116 190 161 193
4 29 31 25 163
4 171 182 139 187
4 74 99 66 181
4 115 132 16 170
4 26 167 14 190
4 87 63 88 182
4 97 100 154 166
4 163 174 172 180
4 161 165 196 198
4 152 128 82 180
4 61 174 1 191
4 132 170 115 188
4 153 88 123 182
4 88 63 138 168
4 130 115 20 184
4 1 171 17 191
4 161 165 177 196
4 29 180 163 188
4 83 73 176 185
4 39 36 21 184
4 171 174 163 191
4 54 169 120 183
4 114 142 127 172
4 169 176 168 181
4 127 70 172 185
4 158 123 88 168
4 96 97 137 166
4 127 51 70 185
4 50 183 169 193
4 99 120 66 169
4 29 163 25 188
4 135 172 70 195
4 72 59 121 181
4 10 9 14 167
4 124 151 99 197
4 167 173 161 190
4 4 113 3 179
4 80 168 102 195
4 70 172 185 195
4 19 115 16 170
4 26 35 173 190
4 137 166 79 178
4 139 171 17 182
4 83 176 73 197
4 2 1 17 191
4 164 184 170 188
4 50 54 120 183
4 81 135 62 174
4 70 185 56 195
4 164 163 180 188
4 126 185 47 189
4 163 179 171 191
4 98 173 117 197
4 129 79 41 178
4 158 102 80 168
4 50 120 169 183
4 96 64 97 173
4 138 102 158 168
4 38 26 35 173
4 44 185 127 189
4 10 26 0 167
4 33 186 13 192
4 168 176 172 195
4 98 64 117 173
4 130 20 36 184
4 19 184 170 186
4 12 8 9 186
4 171 179 165 194
4 6 16 22 192
4 83 55 73 185
4 12 9 184 186
4 114 70 135 172
4 91 182 122 187
4 111 77 133 192
4 106 105 145 175
4 35 190 46 193
4 162 177 161 183
4 57 108 81 174
4 73 47 126 185
4 72 122 153 182
4 86 187 177 194
4 42 128 40 189
4 124 99 176 197
4 126 100 73 166
4 97 100 166 197
4 80 102 95 195
4 116 46 190 193
4 43 126 47 189
4 87 61 63 174
4 35 173 190 193
4 48 65 117 193
4 28 174 57 191
4 65 50 169 193
4 76 177 86 187
4 161 196 160 198
4 102 168 138 195
4 104 169 99 197
4 35 116 46 190
4 33 32 13 186
4 154 100 126 166
4 74 95 124 176
4 105 94 145 175
4 2 112 3 191
4 43 79 126 189
4 161 177 162 196
4 90 63 62 174
4 83 176 55 185
4 161 173 169 193
4 70 51 56 185
4 139 182 146 187
4 125 56 185 195
4 170 179 163 188
4 106 78 119 177
4 96 0 173 178
4 161 190 175 198
4 161 167 190 198
4 152 37 155 188
4 29 25 23 188
4 33 13 77 192
4 166 178 164 189
4 82 44 127 189
4 114 127 70 172
4 22 179 5 192
4 73 166 100 197
4 54 59 66 181
4 20 115 19 184
4 55 125 56 185
4 158 88 138 168
4 172 174 168 195
4 99 104 120 169
4 15 149 179 194
4 169 173 166 197
4 106 145 78 177
4 45 173 35 193
4 38 0 26 173
4 113 156 27 191
4 125 185 176 195
4 117 173 45 193
4 45 35 46 193
4 107 108 52 180
4 82 128 42 189
4 18 167 0 178
4 93 105 106 175
4 162 181 168 182
4 152 180 37 188
4 118 183 49 193
4 86 76 141 177
4 68 76 75 177
4 118 49 69 193
4 61 1 24 191
4 110 111 143 194
4 75 177 76 187
4 139 17 140 182
4 71 123 80 181
4 147 175 131 186
4 116 93 159 190
4 6 22 5 192
4 135 70 134 195
4 166 185 176 197
4 149 143 111 194
4 136 167 18 178
4 142 103 82 180
4 55 176 125 185
4 117 45 48 193
4 61 24 174 191
4 169 181 162 183
4 175 190 167 198
4 85 76 86 187
4 7 16 6 192
4 161 169 183 193
4 139 112 171 194
4 39 129 41 178
4 167 178 136 184
4 46 116 69 193
4 166 176 169 197
4 50 120 65 169
4 72 123 71 181
4 74 71 80 181
4 171 187 139 194
4 87 140 1 182
4 33 94 105 175
4 37 52 29 180
4 9 167 136 184
4 149 4 15 179
4 91 146 182 187
4 11 113 4 179
4 91 146 122 182
4 140 146 139 182
4 165 171 194 196
4 10 136 9 167
4 8 131 9 186
4 65 48 50 193
4 103 152 82 180
4 129 137 79 178
4 37 180 29 188
4 170 186 184 198
4 85 187 86 194
4 165 175 192 198
4 45 38 35 173
4 98 117 65 197
4 27 3 113 191
4 24 57 174 191
4 139 112 17 171
4 104 65 169 197
4 186 192 175 198
4 41 79 43 189
4 125 95 148 195
4 184 186 167 198
4 45 117 64 173
4 53 49 118 183
4 83 73 84 197
4 57 61 24 174
4 125 55 83 176
4 44 51 127 185
4 120 104 65 169
4 62 63 61 174
4 41 42 40 189
4 50 49 183 193
4 64 38 45 173
4 176 185 172 195
4 5 22 11 179
4 24 28 57 191
4 50 49 53 183
4 92 131 147 175
4 144 75 91 187
4 81 62 57 174
4 78 145 141 177
4 125 176 95 195
4 89 87 88 182
4 107 103 142 180
4 132 115 30 188
4 64 96 38 173
4 151 104 99 197
4 60 53 118 183
4 130 30 115 188
4 74 66 71 181
4 139 109 112 194
4 58 54 53 183
4 59 72 71 181
4 148 56 125 195
4 60 58 53 183
4 78 68 119 177
4 85 109 187 194
4 13 186 7 192
4 136 0 18 167
4 165 194 177 196
4 161 190 173 193
4 15 143 149 194
4 50 53 54 183
4 88 153 89 182
4 93 92 175 190
4 157 136 178 184
4 147 131 32 186
4 177 194 187 196
4 26 14 34 190
4 73 100 84 197
4 36 20 21 184
4 62 61 57 174
4 90 135 134 195
4 13 32 7 186
4 19 7 8 186
4 97 98 100 197
4 47 185 44 189
4 55 47 73 185
4 85 75 76 187
4 70 56 134 195
4 71 66 59 181
4 90 102 138 195
4 77 13 133 192
4 125 124 95 176
4 148 95 102 195
4 85 86 109 194
4 82 42 44 189
4 86 110 143 194
4 38 96 0 173
4 43 47 44 189
4 26 34 35 190
4 157 21 136 184
4 27 156 28 191
4 125 83 124 176
4 78 76 68 177
4 141 76 78 177
4 109 139 187 194
4 130 155 30 188
4 33 105 147 175
4 103 107 52 180
4 11 4 5 179
4 12 20 19 184
4 157 129 39 178
4 52 37 103 180
4 12 9 136 184
4 14 92 34 190
4 137 18 96 178
4 56 51 55 185
4 112 109 15 194
4 85 109 139 187
4 91 139 146 187
4 103 37 152 180
4 105 93 92 175
4 30 23 132 188
4 34 116 35 190
4 2 24 1 191
4 84 151 83 197
4 137 129 18 178
4 167 186 175 198
4 104 98 65 197
4 5 133 6 192
4 89 153 122 182
4 27 2 3 191
4 177 187 162 196
4 105 92 147 175
4 50 48 49 193
4 96 18 0 178
4 13 7 6 192
4 187 194 171 196
4 170 192 186 198
4 44 47 51 185
4 49 46 69 193
4 48 45 46 193
4 5 4 149 179
4 29 23 30 188
4 87 89 140 182
4 30 155 37 188
4 93 34 92 190
4 93 116 34 190
4 51 47 55 185
4 41 43 42 189
4 30 37 29 188
4 32 131 8 186
4 7 32 8 186
4 89 122 146 182
4 24 27 28 191
4 75 85 91 187
4 12 21 20 184
4 100 98 84 197
4 6 133 13 192
4 12 136 21 184
4 157 136 18 178
4 90 134 102 195
4 2 27 24 191
4 48 46 49 193
4 43 44 42 189
4 146 140 89 182
4 15 109 143 194
4 56 148 134 195
4 86 143 109 194
4 85 139 91 187
4 157 18 129 178
4 102 134 148 195
4 84 104 151 197
4 98 104 84 197
4 198 196 179 165
4 198 179 196 160
4 188 101 152 164
4 188 152 101 155
4 67 177 60 68
4 60 177 67 162
4 177 110 94 141
4 177 94 110 165
4 183 59 162 58
4 183 162 59 181
4 40 178 36 39
4 36 178 40 164
4 182 63 174 87
4 182 174 63 168
4 173 65 197 169
4 173 197 65 117
4 122 187 162 144
4 162 187 122 182
4 114 180 81 107
4 81 180 114 172
4 16 186 192 7
4 192 186 16 170
4 17 191 112 2
4 112 191 17 171
4 182 17 1 171
4 182 1 17 140
4 179 198 192 170
4 192 198 179 165
4 197 124 83 176
4 197 83 124 151
4 186 12 19 184
4 186 19 12 8
4 186 147 33 32
4 186 33 147 175
4 192 149 5 133
4 192 5 149 179
4 182 196 187 171
4 187 196 182 162
4 184 157 39 178
4 184 39 157 21

CELL_TYPES 974
1
1
3
3
3
3
3
3
3
3
3
3
5
5
5
5
5
5
5
5
5
5
5
5
5
5
5
5
5
5
5
5
5
5
5
5
5
5
5
5
5
5
5
5
5
5
5
5
5
5
5
5
5
5
5
5
5
5
5
5
5
5
5
5
5
5
5
5
5
5
5
5
5
5
5
5
5
5
5
5
5
5
5
5
5
5
5
5
5
5
5
5
5
5
5
5
5
5
5
5
5
5
5
5
5
5
5
5
5
5
5
5
5
5
5
5
5
5
5
5
5
5
5
5
5
5
5
5
5
5
5
5
5
5
5
5
5
5
5
5
5
5
5
5
5
5
5
5
5
5
5
5
5
5
5
5
5
5
5
5
5
5
5
5
5
5
5
5
5
5
5
5
5
5
5
5
5
5
5
5
5
5
5
5
5
5
5
5
5
5
5
5
5
5
5
5
5
5
5
5
5
5
5
5
5
5
5
5
5
5
5
5
5
5
5
5
5
5
5
5
5
5
5
5
5
5
5
5
5
5
5
5
5
5
5
5
5
5
5
5
5
5
5
5
5
5
5
5
5
5
5
5
5
5
5
5
5
5
5
5
5
5
5
5
5
5
5
5
5
5
5
5
5
5
5
5
5
5
5
5
5
5
5
5
5
5
5
5
5
5
5
5
5
5
5
5
5
5
5
5
5
5
5
5
5
5
5
5
5
5
5
5
5
5
5
5
5
5
5
5
5
5
5
5
5
5
5
5
10
10
10
10
10
10
10
10
10
10
10
10
10
10
10
10
10
10
10
10
10
10
10
10
10
10
10
10
10
10
10
10
10
10
10
10
10
10
10
10
10
10
10
10
10
10
10
10
10
10
10
10
10
10
10
10
10
10
10
10
10
10
10
10
10
10
10
10
10
10
10
10
10
10
10
10
10
10
10
10
10
10
10
10
10
10
10
10
10
10
10
10
10
10
10
10
10
10
10
10
10
10
10
10
10
10
10
10
10
10
10
10
10
10
10
10
10
10
10
10
10
10
10
10
10
10
10
10
10
10
10
10
10
10
10
10
10
10
10
10
10
10
10
10
10
10
10
10
10
10
10
10
10
10
10
10
10
10
10
10
10
10
10
10
10
10
10
10
10
10
10
10
10
10
10
10
10
10
10
10
10
10
10
10
10
10
10
10
10
10
10
10
10
10
10
10
10
10
10
10
10
10
10
10
10
10
10
10
10
10
10
10
10
10
10
10
10
10
10
10
10
10
10
10
10
10
10
10
10
10
10
10
10
10
10
10
10
10
10
10
10
10
10
10
10
10
10
10
10
10
10
10
10
10
10
10
10
10
10
10
10
10
10
10
10
10
10
10
10
10
10
10
10
10
10
10
10
10
10
10
10
10
10
10
10
10
10
10
10
10
10
10
10
10
10
10
10
10
10
10
10
10
10
10
10
10
10
10
10
10
10
10
10
10
10
10
10
10
10
10
10
10
10
10
10
10
10
10
10
10
10
10
10
10
10
10
10
10
10
10
10
10
10
10
10
10
10
10
10
10
10
10
10
10
10
10
10
10
10
10
10
10
10
10
10
10
10
10
10
10
10
10
10
10
10
10
10
10
10
10
10
10
10
10
10
10
10
10
10
10
10
10
10
10
10
10
10
10
10
10
10
10
10
10
10
10
10
10
10
10
10
10
10
10
10
10
10
10
10
10
10
10
10
10
10
10
10
10
10
10
10
10
10
10
10
10
10
10
10
10
10
10
10
10
10
10
10
10
10
10
10
10
10
10
10
10
10
10
10
10
10
10
10
10
10
10
10
10
10
10
10
10
10
10
10
10
10
10
10
10
10
10
10
10
10
10
10
10
10
10
10
10
10
10
10
10
10
10
10
10
10
10
10
10
10
10
10
10
10
10
10
10
10
10
10
10
10
10
10
10
10
10
10
10
10
10
10
10
10
10
10
10
10
10
10
10
10
10
10
10
10
10
10
10
10
10
10
10
10
10
10
10
10
10
10
10
10
10
10
10
10
10
10
10
10
10
10
10
10
10
10
10
10
10
10
10
10
10
10
10
10
10
10
10
10
10
10
10
10
10
10
10
10
10
10
10
10
10
10
10
10
10
10
10
10
10
10
10
10
10
10
10
10
10
10
10
10
10
10
10
10
10
10
10
10
10
10
10
10
10
10
10
10
10
10
10
10
10
10
10
10
10
10
10
10
10
