# vtk DataFile Version 2.0
cement-bag, Created by Gmsh 4.13.1 
ASCII
DATASET UNSTRUCTURED_GRID
POINTS 229 double
-19 -1 27
-19 -1 -28
-19 11.5 27
-19 11.5 -28
19 -1 27
19 -1 -28
19 11.5 27
19 11.5 -28
-19 -1 -21.88888888888888
-19 -1 -15.77777777777775
-19 -1 -9.666666666666643
-19 -1 -3.555555555555539
-19 -1 2.555555555555571
-19 -1 8.666666666666671
-19 -1 14.77777777777777
-19 -1 20.88888888888888
-19 5.25000000000002 27
-19 11.5 -21.88888888888888
-19 11.5 -15.77777777777775
-19 11.5 -9.666666666666643
-19 11.5 -3.555555555555539
-19 11.5 2.555555555555571
-19 11.5 8.666666666666671
-19 11.5 14.77777777777777
-19 11.5 20.88888888888888
-19 5.25000000000002 -28
19 -1 -21.88888888888888
19 -1 -15.77777777777775
19 -1 -9.666666666666643
19 -1 -3.555555555555539
19 -1 2.555555555555571
19 -1 8.666666666666671
19 -1 14.77777777777777
19 -1 20.88888888888888
19 5.25000000000002 27
19 11.5 -21.88888888888888
19 11.5 -15.77777777777775
19 11.5 -9.666666666666643
19 11.5 -3.555555555555539
19 11.5 2.555555555555571
19 11.5 8.666666666666671
19 11.5 14.77777777777777
19 11.5 20.88888888888888
19 5.25000000000002 -28
-12.66666666666667 -1 -28
-6.333333333333362 -1 -28
-4.973799150320701e-14 -1 -28
6.333333333333265 -1 -28
12.66666666666662 -1 -28
-12.66666666666667 -1 27
-6.333333333333362 -1 27
-4.973799150320701e-14 -1 27
6.333333333333265 -1 27
12.66666666666662 -1 27
-12.66666666666667 11.5 -28
-6.333333333333362 11.5 -28
-4.973799150320701e-14 11.5 -28
6.333333333333265 11.5 -28
12.66666666666662 11.5 -28
-12.66666666666667 11.5 27
-6.333333333333362 11.5 27
-4.973799150320701e-14 11.5 27
6.333333333333265 11.5 27
12.66666666666662 11.5 27
-19 4.904799872637319 -0.5100363009436784
-19 5.258339267343262 11.70255107237256
-19 5.143812215132721 -12.7222222222222
-19 5.953158342471554 -18.83333333333331
-19 4.546841657528441 17.83333333333333
-19 5.397165727345449 -6.612305908842483
-19 5.425095787101823 5.573852538655373
-19 3.528076947953089 -23.97315549988507
-19 6.971923052046918 22.97315549988508
-19 2.741767486206132 23.33519999293454
-19 7.758232513793871 -24.33519999293453
19 4.904799872637319 -0.5100363009436784
19 5.258339267343262 11.70255107237256
19 5.143812215132721 -12.7222222222222
19 5.953158342471554 -18.83333333333331
19 4.546841657528441 17.83333333333333
19 5.397165727345449 -6.612305908842483
19 5.425095787101823 5.573852538655373
19 3.528076947953089 -23.97315549988507
19 6.971923052046918 22.97315549988508
19 2.741767486206132 23.33519999293454
19 7.758232513793871 -24.33519999293453
-13.23409173988661 -1 5.11936032009605
13.28580441433049 -1 -6.535084426393482
-13.45485537813522 -1 -6.56181189290869
12.90081037974492 -1 4.993539094736349
3.099261018462119 -1 -22.56800955824556
3.086128068359216 -1 20.99147757487435
-9.204033330489441 -1 -22.70038291426159
-9.214241040122442 -1 21.25123068624531
14.32022496743913 -1 17.74161572191952
14.44987599753831 -1 -18.76228604928781
-3.145297208651247 -1 -22.52751010503624
-0.01891854841780116 -1 -17.11031894006377
5.853043589534884 -1 -16.94890784224314
3.036810265179994 -1 -11.69745891550764
-3.20476860532608 -1 -11.73436665319268
-0.02465188646886318 -1 -6.375729687229622
-6.450043700105656 -1 -6.425973817738971
-3.11873282275538 -1 -1.063258084575505
3.063164649166186 -1 -1.051034787219926
-0.01122933101639489 -1 4.266414924093894
-9.197446973527491 -1 -1.044688922095531
6.150273252164908 -1 4.272547696545232
2.975004887340269 -1 9.552295802340424
-3.104725037618184 -1 9.589636576367965
-9.447771816102724 -1 -11.94881865605985
-0.03397542292798406 -1 15.06064902108697
5.733281025028951 -1 15.23025709432318
-6.212634885696243 -1 15.18950599708838
9.215755121071677 -1 -1.044670950381278
8.895305010738475 -1 -11.6933366211617
-3.118778405092062 -1 20.86703202489983
-13.0266377518278 -1 16.43087980922598
-6.235592459659781 -1 -17.20643086535355
6.15091917026179 -1 -6.354546578616187
14.07382481323232 -1 11.70663825190401
-6.306598366698065 -1 4.418737647093828
-9.357161748128142 -1 10.27126727955756
-13.14876295915932 -1 -17.94098473302737
9.600392321120172 -1 20.75818084520454
9.62459862483994 -1 -21.963877277043
8.712163494985095 -1 9.858445434730648
-14.77727881830986 -1 -0.6974280989816286
14.68047398302942 -1 -0.7172432564076807
14.37674508797537 -1 -12.89259789823765
-14.49567839118815 -1 10.96810936991789
-14.82600177331368 -1 -12.68028311041771
-14.32794133454963 -1 22.38431091843224
-14.32794133454964 -1 -23.38431091843225
14.79915150072194 -1 22.64585156444097
14.6191837723355 -1 -23.60697299730449
10.55972391210022 -1 14.77777777777776
10.59040161392688 -1 -16.29494359599263
14.03177109008331 11.5 -0.1395356621096013
-13.35203038408518 11.5 4.924162165517103
-13.41818417243159 11.5 -6.490476964392109
3.145677600893052 11.5 -22.52422987101907
3.167090605169811 11.5 21.17242353777263
14.09046698919577 11.5 -12.93302761642563
13.43485340867725 11.5 11.78082796219503
-9.227316954127396 11.5 -22.67801272734053
-9.213241369433174 11.5 21.28065977167475
-3.121957714765696 11.5 -22.56210240499167
0.001409748291024471 11.5 -17.1031467534177
5.781279852256752 11.5 -16.78805624285707
2.965162835962957 11.5 -11.6056886256665
-3.13258205138281 11.5 -11.68477716920035
-0.01603885371011771 11.5 -6.326796936775747
6.116125964108079 11.5 -6.3689255589655
2.944502973496483 11.5 -1.085171385920926
-3.058771979352631 11.5 -1.004668548275902
-0.07449212929161675 11.5 4.3038459689202
5.56532038139116 11.5 3.896191533339369
2.874123291658989 11.5 9.542941655043414
-3.231337888906197 11.5 9.646530408206985
-0.05235758731818763 11.5 15.14072852593021
7.38785149846105 11.5 14.97210366446935
9.640264892650585 11.5 21.59735871296722
-6.237981159858975 11.5 15.25697058617754
-3.111905946425553 11.5 20.93494377194295
-13.04985994897459 11.5 16.46841967004553
-6.226518092913327 11.5 -17.12224303289553
-9.30956603809253 11.5 -11.63746149190382
-13.08100779937031 11.5 -17.81696763022759
9.518573194192392 11.5 -21.86942562030029
-6.149891392132407 11.5 -6.337694007011461
-9.625418544630994 11.5 -0.8639978867820943
-6.432268127846033 11.5 4.460026402186628
12.74080492992315 11.5 -6.475737779705202
14.07816630726338 11.5 5.80251360369202
-9.43696257464029 11.5 10.2820254456613
14.4113949399615 11.5 -18.60753616104319
8.947004654506756 11.5 8.102517840216429
13.90933153941718 11.5 17.48416804708991
8.560894838322355 11.5 -11.32391775584089
8.433668436054326 11.5 -1.457742595217059
-14.54762071539997 11.5 10.98082247412977
-14.68002605167328 11.5 -12.26421538281094
-14.87912662022955 11.5 -0.6860625371314129
14.84325261974688 11.5 22.79408312978919
-14.32794133454964 11.5 22.38431091843224
-14.32794133454964 11.5 -23.38431091843225
14.52148415224818 11.5 -23.50054363984374
10.2751176999311 11.5 2.936987970225147
10.47252196278575 11.5 -16.30439267929341
-9.500000000000018 4.484827557301426 -28
3.157565709240906 5.452857377255041 -28
9.499999999999932 4.484827557301447 -28
-3.204884496727157 5.512107627359101 -28
14.84888437796563 6.913106413969203 -28
-14.84888437796567 6.913106413969214 -28
-15.35639404771466 2.594921664208946 -28
15.35639404771465 2.59492166420892 -28
-9.500000000000018 4.484827557301426 27
3.166666666666607 4.991159088548549 27
9.661853174734773 5.735697271545289 27
-3.166666666666705 5.537702373791985 27
-14.84888437796567 6.913106413969214 27
14.66887235322578 3.621658479230605 27
15.15490685663467 7.681416486818121 27
-15.35639404771466 2.594921664208946 27
11.35231827894626 5.25545822239646 -19.31948454560943
-0.0733666740542871 5.246026885895754 -13.5106240039664
-0.03127295588055201 5.226036536118539 0.7073390670672017
0.0008786823792648057 5.259713587751872 -20.72584550860448
-0.07580239610062713 5.143977786811407 7.789365300467939
11.83483388581526 5.052691922272833 1.009680142216896
5.995287700447871 5.092397909403023 -2.838335770066755
-12.17217057852469 5.269566165983357 1.590056577242541
5.942101048128807 5.137669064369426 -9.870119764961988
-11.84582150938881 5.28203511445926 -14.45466313022848
-7.019635529475966 5.249871563558964 -20.33172018602317
-6.28161469324648 5.205071952479371 -9.969197650257064
-11.65039723260763 5.25973697553952 13.13187171638605
5.736081032755724 5.0753540897525 11.71994978294018
11.96896638419664 5.226719250870831 7.970672190075095
-6.2979372953829 5.255162844678958 18.9739813025735
12.75096256036357 5.317471349997833 20.61174776964793
-6.371361151973675 5.374394707722136 -2.566165301888049
11.96652295434444 5.198785429804922 -12.69430745753244
-13.02033359176803 5.250000000000001 20.9372646428573
5.90819226566899 5.113941091472261 18.79938918673212
-7.152210590556766 5.231468790894636 7.667105208710719
-13.18815420709344 5.3546352375709 -22.02230627175703

CELLS 1131 5087
1 0
1 1
1 2
1 3
1 4
1 5
1 6
1 7
2 1 8
2 8 9
2 9 10
2 10 11
2 11 12
2 12 13
2 13 14
2 14 15
2 15 0
2 0 16
2 16 2
2 3 17
2 17 18
2 18 19
2 19 20
2 20 21
2 21 22
2 22 23
2 23 24
2 24 2
2 1 25
2 25 3
2 5 26
2 26 27
2 27 28
2 28 29
2 29 30
2 30 31
2 31 32
2 32 33
2 33 4
2 4 34
2 34 6
2 7 35
2 35 36
2 36 37
2 37 38
2 38 39
2 39 40
2 40 41
2 41 42
2 42 6
2 5 43
2 43 7
2 1 44
2 44 45
2 45 46
2 46 47
2 47 48
2 48 5
2 0 49
2 49 50
2 50 51
2 51 52
2 52 53
2 53 4
2 3 54
2 54 55
2 55 56
2 56 57
2 57 58
2 58 7
2 2 59
2 59 60
2 60 61
2 61 62
2 62 63
2 63 6
3 15 0 73
3 0 16 73
3 1 8 71
3 25 1 71
3 16 2 72
3 2 24 72
3 17 3 74
3 3 25 74
3 8 9 67
3 8 67 71
3 9 10 66
3 9 66 67
3 10 11 69
3 66 10 69
3 11 12 64
3 11 64 69
3 12 13 70
3 64 12 70
3 13 14 65
3 13 65 70
3 14 15 68
3 65 14 68
3 68 15 73
3 16 72 73
3 18 17 67
3 67 17 74
3 19 18 66
3 66 18 67
3 20 19 69
3 19 66 69
3 21 20 64
3 64 20 69
3 22 21 70
3 21 64 70
3 23 22 65
3 65 22 70
3 24 23 68
3 23 65 68
3 24 68 72
3 25 71 74
3 71 67 74
3 72 68 73
3 33 84 4
3 4 84 34
3 5 82 26
3 43 82 5
3 34 83 6
3 6 83 42
3 35 85 7
3 7 85 43
3 26 78 27
3 26 82 78
3 27 77 28
3 27 78 77
3 28 80 29
3 77 80 28
3 29 75 30
3 29 80 75
3 30 81 31
3 75 81 30
3 31 76 32
3 31 81 76
3 32 79 33
3 76 79 32
3 79 84 33
3 34 84 83
3 36 78 35
3 78 85 35
3 37 77 36
3 77 78 36
3 38 80 37
3 37 80 77
3 39 75 38
3 75 80 38
3 40 81 39
3 39 81 75
3 41 76 40
3 76 81 40
3 42 79 41
3 41 79 76
3 42 83 79
3 43 85 82
3 82 85 78
3 83 84 79
3 0 15 132
3 49 0 132
3 8 1 133
3 1 44 133
3 33 4 134
3 4 53 134
3 5 26 135
3 48 5 135
3 9 8 123
3 123 8 133
3 10 9 131
3 9 123 131
3 11 10 88
3 88 10 131
3 12 11 127
3 11 88 127
3 13 12 86
3 86 12 127
3 14 13 130
3 13 86 130
3 15 14 117
3 117 14 130
3 15 117 132
3 26 27 95
3 26 95 135
3 27 28 129
3 95 27 129
3 28 29 87
3 28 87 129
3 29 30 128
3 87 29 128
3 30 31 89
3 30 89 128
3 31 32 120
3 89 31 120
3 32 33 94
3 32 94 120
3 94 33 134
3 44 45 92
3 44 92 133
3 45 46 96
3 92 45 96
3 46 47 90
3 46 90 96
3 47 48 125
3 90 47 125
3 125 48 135
3 50 49 93
3 93 49 132
3 51 50 116
3 50 93 116
3 52 51 91
3 91 51 116
3 53 52 124
3 52 91 124
3 53 124 134
3 86 106 121
3 106 86 127
3 86 121 122
3 86 122 130
3 87 114 119
3 114 87 128
3 115 87 119
3 87 115 129
3 88 102 106
3 102 88 110
3 88 106 127
3 110 88 131
3 89 107 114
3 107 89 126
3 89 114 128
3 89 120 126
3 96 90 97
3 97 90 98
3 98 90 125
3 91 111 112
3 111 91 116
3 91 112 124
3 92 96 118
3 92 118 123
3 92 123 133
3 93 113 116
3 113 93 117
3 117 93 132
3 120 94 136
3 124 94 134
3 94 124 136
3 95 125 135
3 125 95 137
3 95 129 137
3 96 97 118
3 97 98 99
3 97 99 100
3 97 100 118
3 99 98 115
3 115 98 137
3 98 125 137
3 100 99 101
3 101 99 119
3 99 115 119
3 100 101 102
3 100 102 110
3 100 110 118
3 102 101 103
3 103 101 104
3 104 101 119
3 102 103 106
3 103 104 105
3 103 105 121
3 106 103 121
3 105 104 107
3 107 104 114
3 114 104 119
3 105 107 108
3 105 108 109
3 105 109 121
3 108 107 126
3 109 108 111
3 111 108 112
3 112 108 126
3 109 111 113
3 109 113 122
3 121 109 122
3 118 110 123
3 123 110 131
3 113 111 116
3 124 112 136
3 112 126 136
3 113 117 122
3 129 115 137
3 122 117 130
3 126 120 136
3 2 185 24
3 59 185 2
3 17 186 3
3 3 186 54
3 42 184 6
3 6 184 63
3 7 187 35
3 58 187 7
3 18 168 17
3 168 186 17
3 19 182 18
3 18 182 168
3 20 140 19
3 140 182 19
3 21 183 20
3 20 183 140
3 22 139 21
3 139 183 21
3 23 181 22
3 22 181 139
3 24 165 23
3 165 181 23
3 24 185 165
3 35 176 36
3 35 187 176
3 36 143 37
3 36 176 143
3 37 173 38
3 143 173 37
3 38 138 39
3 38 173 138
3 39 174 40
3 138 174 39
3 40 144 41
3 40 174 144
3 41 178 42
3 144 178 41
3 178 184 42
3 54 145 55
3 54 186 145
3 55 147 56
3 145 147 55
3 56 141 57
3 56 147 141
3 57 169 58
3 141 169 57
3 169 187 58
3 60 146 59
3 146 185 59
3 61 164 60
3 60 164 146
3 62 142 61
3 142 164 61
3 63 162 62
3 62 162 142
3 63 184 162
3 173 180 138
3 138 188 174
3 180 188 138
3 139 172 171
3 171 183 139
3 139 175 172
3 139 181 175
3 140 170 167
3 167 182 140
3 140 171 170
3 140 183 171
3 147 148 141
3 148 149 141
3 149 169 141
3 142 161 160
3 160 164 142
3 142 162 161
3 143 179 173
3 176 189 143
3 143 189 179
3 144 177 161
3 161 178 144
3 174 177 144
3 145 166 147
3 145 168 166
3 145 186 168
3 146 164 163
3 163 165 146
3 165 185 146
3 147 166 148
3 148 150 149
3 148 151 150
3 148 166 151
3 150 179 149
3 149 189 169
3 179 189 149
3 151 152 150
3 152 153 150
3 153 179 150
3 151 170 152
3 166 167 151
3 167 170 151
3 152 154 153
3 152 155 154
3 152 170 155
3 154 180 153
3 173 179 153
3 153 180 173
3 155 156 154
3 156 157 154
3 157 180 154
3 155 172 156
3 170 171 155
3 171 172 155
3 156 158 157
3 156 159 158
3 156 172 159
3 158 177 157
3 177 188 157
3 157 188 180
3 159 160 158
3 160 161 158
3 161 177 158
3 159 163 160
3 159 175 163
3 172 175 159
3 163 164 160
3 162 178 161
3 162 184 178
3 163 175 165
3 175 181 165
3 166 168 167
3 168 182 167
3 176 187 169
3 169 189 176
3 174 188 177
3 1 25 196
3 44 1 196
3 25 3 195
3 3 54 195
3 43 5 197
3 5 48 197
3 7 43 194
3 58 7 194
3 25 195 196
3 194 43 197
3 45 44 190
3 190 44 196
3 46 45 193
3 45 190 193
3 47 46 191
3 191 46 193
3 48 47 192
3 47 191 192
3 48 192 197
3 54 55 190
3 54 190 195
3 55 56 193
3 190 55 193
3 56 57 191
3 56 191 193
3 57 58 192
3 191 57 192
3 192 58 194
3 195 190 196
3 192 194 197
3 0 205 16
3 49 205 0
3 16 202 2
3 2 202 59
3 34 203 4
3 4 203 53
3 6 204 34
3 63 204 6
3 16 205 202
3 34 204 203
3 50 198 49
3 198 205 49
3 51 201 50
3 50 201 198
3 52 199 51
3 199 201 51
3 53 200 52
3 52 200 199
3 53 203 200
3 59 198 60
3 59 202 198
3 60 201 61
3 198 201 60
3 61 199 62
3 61 201 199
3 62 200 63
3 199 200 62
3 200 204 63
3 202 205 198
3 203 204 200
4 152 101 207 214
4 149 206 98 209
4 149 98 207 209
4 98 149 207 214
4 149 98 206 214
4 107 157 211 212
4 107 211 157 220
4 152 208 101 212
4 152 207 101 217
4 152 212 101 214
4 101 208 152 223
4 157 208 107 210
4 107 208 157 212
4 87 211 173 212
4 157 210 107 219
4 163 159 210 227
4 107 157 219 220
4 173 212 214 224
4 101 152 217 223
4 191 206 141 209
4 160 210 111 221
4 113 111 210 221
4 191 90 206 209
4 87 214 212 224
4 113 111 109 210
4 136 220 219 222
4 163 210 221 227
4 173 87 212 224
4 210 113 221 227
4 173 87 80 211
4 113 210 109 227
4 160 163 159 210
4 164 201 221 226
4 116 221 201 226
4 149 141 206 209
4 160 163 210 221
4 98 206 90 209
4 136 94 120 222
4 219 220 144 222
4 140 213 88 223
4 199 91 116 226
4 140 88 215 217
4 140 69 88 213
4 111 160 221 226
4 191 169 141 206
4 144 220 76 222
4 140 88 217 223
4 149 214 206 224
4 206 214 98 224
4 111 210 160 219
4 140 88 69 215
4 199 116 201 226
4 80 87 173 224
4 164 142 201 226
4 116 111 221 226
4 90 192 191 206
4 111 219 160 226
4 90 125 192 206
4 188 157 211 220
4 201 142 199 226
4 161 219 144 222
4 160 164 221 226
4 94 79 120 222
4 116 91 111 226
4 144 76 178 222
4 169 149 141 206
4 192 169 191 206
4 90 98 125 206
4 136 222 219 226
4 178 161 144 222
4 80 87 128 211
4 173 80 138 211
4 70 213 139 218
4 120 79 76 222
4 80 128 75 211
4 139 218 213 227
4 183 69 140 213
4 149 206 189 224
4 70 139 181 218
4 80 75 138 211
4 86 213 70 218
4 140 69 182 215
4 161 219 222 226
4 86 213 218 227
4 137 206 98 224
4 131 69 88 215
4 160 142 164 226
4 130 86 70 218
4 64 69 183 213
4 188 157 180 211
4 131 66 69 215
4 157 177 219 220
4 163 221 218 227
4 207 166 216 217
4 218 221 113 227
4 118 207 216 217
4 182 69 66 215
4 194 82 85 206
4 178 76 79 222
4 197 82 194 206
4 180 173 211 212
4 150 152 207 214
4 197 135 82 206
4 65 130 70 218
4 151 207 152 217
4 114 211 87 212
4 98 97 207 209
4 149 189 179 224
4 172 223 208 227
4 208 223 121 227
4 194 85 187 206
4 99 98 207 214
4 154 208 152 212
4 149 179 214 224
4 149 207 148 209
4 99 207 101 214
4 173 212 153 214
4 166 148 207 209
4 119 212 87 214
4 149 150 207 214
4 97 118 207 209
4 194 187 169 206
4 166 209 207 216
4 188 177 157 220
4 65 70 181 218
4 103 208 101 223
4 101 207 100 217
4 207 209 118 216
4 180 211 157 212
4 115 98 214 224
4 156 172 208 210
4 95 129 77 224
4 152 208 155 223
4 104 101 208 212
4 115 137 98 224
4 171 213 140 223
4 106 88 213 223
4 110 215 88 217
4 158 210 157 219
4 102 217 88 223
4 105 107 208 210
4 208 210 172 227
4 104 208 107 212
4 153 212 152 214
4 95 78 206 224
4 121 105 208 210
4 100 207 118 217
4 157 156 208 210
4 166 207 151 217
4 157 208 154 212
4 140 215 167 217
4 121 210 208 227
4 215 216 166 217
4 82 135 95 206
4 106 88 127 213
4 181 139 175 218
4 107 210 108 219
4 118 216 215 217
4 140 171 183 213
4 57 169 141 191
4 143 80 173 224
4 173 214 179 224
4 80 129 87 224
4 121 208 103 223
4 80 77 129 224
4 138 180 173 211
4 115 214 87 224
4 95 77 78 224
4 192 135 197 206
4 199 51 116 91
4 107 219 126 220
4 155 208 172 223
4 192 197 194 206
4 152 170 217 223
4 140 217 170 223
4 139 175 218 227
4 102 101 217 223
4 194 169 192 206
4 182 167 140 215
4 143 77 80 224
4 121 223 213 227
4 152 151 150 207
4 138 80 173 38
4 86 130 122 218
4 176 206 78 224
4 172 213 223 227
4 143 176 78 224
4 114 128 87 211
4 111 108 210 219
4 51 116 201 199
4 131 88 110 215
4 96 45 92 216
4 37 80 173 143
4 87 129 80 28
4 129 77 80 28
4 107 211 114 212
4 101 212 119 214
4 101 99 100 207
4 136 126 219 220
4 173 153 179 214
4 38 138 80 75
4 177 158 157 219
4 95 206 137 224
4 189 206 176 224
4 143 37 80 77
4 103 104 101 208
4 155 152 154 208
4 57 169 191 192
4 85 82 78 206
4 30 128 89 211
4 95 77 129 27
4 78 82 95 206
4 147 145 55 216
4 201 164 61 142
4 86 218 122 227
4 88 131 10 69
4 96 193 45 216
4 138 75 39 211
4 180 153 173 212
4 155 156 172 208
4 89 211 107 220
4 174 211 81 220
4 149 179 150 214
4 88 11 127 69
4 107 104 105 208
4 119 87 115 214
4 121 105 103 208
4 98 97 99 207
4 128 87 80 29
4 95 137 129 224
4 100 97 118 207
4 85 78 187 206
4 149 148 141 209
4 147 56 141 209
4 150 153 152 214
4 75 128 30 211
4 151 166 148 207
4 125 135 192 206
4 66 10 131 69
4 166 147 148 209
4 199 201 61 142
4 50 116 93 221
4 154 152 153 212
4 98 90 97 209
4 160 210 158 219
4 90 47 192 125
4 112 219 111 226
4 81 30 89 211
4 143 189 176 224
4 97 96 118 209
4 201 116 50 221
4 174 188 211 220
4 96 209 193 216
4 148 149 150 207
4 80 75 128 29
4 107 108 126 219
4 109 111 108 210
4 166 147 209 216
4 62 162 200 226
4 99 115 98 214
4 156 159 172 210
4 64 127 11 69
4 114 87 119 212
4 144 219 177 220
4 14 130 65 218
4 163 175 159 227
4 102 103 101 223
4 106 102 88 223
4 199 62 200 226
4 143 78 77 224
4 96 118 209 216
4 164 60 146 221
4 62 142 162 226
4 192 191 47 90
4 120 94 32 79
4 52 200 124 226
4 56 147 193 209
4 199 142 62 226
4 81 39 75 211
4 56 191 141 209
4 163 218 175 227
4 187 78 176 206
4 193 147 55 216
4 105 108 107 210
4 81 75 30 211
4 96 90 46 209
4 147 193 209 216
4 157 154 180 212
4 122 113 109 227
4 122 218 113 227
4 60 198 146 221
4 136 120 126 220
4 52 124 91 226
4 199 52 91 226
4 96 46 193 209
4 45 190 92 216
4 102 110 88 217
4 110 118 215 217
4 176 36 143 78
4 151 152 170 217
4 199 200 52 226
4 169 58 187 194
4 50 93 198 221
4 55 145 190 216
4 157 156 154 208
4 138 174 188 211
4 18 182 66 215
4 172 213 171 223
4 174 40 144 220
4 81 211 89 220
4 164 201 60 221
4 95 78 77 27
4 140 183 20 69
4 46 90 191 209
4 14 117 130 218
4 102 101 100 217
4 159 172 210 227
4 65 13 70 130
4 41 178 144 76
4 130 13 70 86
4 167 215 166 217
4 121 109 105 210
4 63 184 204 222
4 201 50 198 221
4 140 19 182 69
4 157 158 156 210
4 19 66 182 69
4 106 213 121 223
4 171 140 170 223
4 139 22 70 181
4 161 177 144 219
4 18 168 182 215
4 201 198 60 221
4 170 140 167 217
4 174 81 40 220
4 183 64 20 69
4 152 155 170 223
4 149 169 189 206
4 190 45 193 216
4 159 158 160 210
4 113 116 111 221
4 56 193 191 209
4 181 23 65 218
4 99 101 119 214
4 136 219 112 226
4 40 76 144 220
4 46 191 193 209
4 160 219 161 226
4 139 213 172 227
4 79 32 120 76
4 131 9 66 215
4 131 123 9 215
4 123 215 216 228
4 124 222 136 226
4 110 100 118 217
4 104 119 101 212
4 121 109 210 227
4 104 107 114 212
4 65 70 22 181
4 118 123 215 216
4 137 125 98 206
4 178 41 79 76
4 123 216 92 228
4 218 221 165 225
4 117 221 218 225
4 167 166 151 217
4 55 190 193 216
4 146 165 221 225
4 146 221 198 225
4 181 165 23 218
4 68 14 65 218
4 31 120 76 220
4 162 161 178 222
4 145 190 216 228
4 123 67 215 228
4 161 222 162 226
4 168 216 215 228
4 163 165 218 221
4 93 221 117 225
4 194 169 58 192
4 117 113 218 221
4 200 222 124 226
4 166 215 168 216
4 78 36 143 77
4 76 40 81 220
4 183 139 21 213
4 86 121 213 227
4 145 216 168 228
4 183 21 64 213
4 123 67 9 215
4 64 12 127 213
4 31 76 81 220
4 66 9 67 215
4 12 86 127 213
4 89 107 126 220
4 31 81 89 220
4 163 146 165 221
4 163 160 164 221
4 134 53 203 222
4 117 93 113 221
4 68 218 165 225
4 91 112 111 226
4 68 117 14 218
4 118 92 123 216
4 162 184 63 222
4 106 121 103 223
4 89 114 107 211
4 94 136 124 222
4 143 173 179 224
4 67 18 66 215
4 12 70 86 213
4 155 172 171 223
4 111 112 108 219
4 166 168 145 216
4 120 31 89 220
4 70 21 139 213
4 12 64 70 213
4 134 124 53 222
4 18 67 168 215
4 123 133 8 228
4 162 222 200 226
4 83 184 42 222
4 63 204 200 222
4 24 165 185 225
4 53 200 203 222
4 190 145 54 228
4 186 54 145 228
4 129 115 87 224
4 123 8 67 228
4 33 134 84 79
4 190 54 195 228
4 21 70 64 213
4 71 67 8 228
4 93 198 221 225
4 139 172 175 227
4 190 92 216 228
4 71 8 133 228
4 59 185 146 225
4 168 215 67 228
4 100 99 97 207
4 74 186 17 228
4 24 68 165 225
4 59 198 202 225
4 171 172 139 213
4 134 33 94 79
4 151 148 150 207
4 187 35 78 85
4 68 117 218 225
4 146 198 59 225
4 48 197 192 135
4 135 82 95 26
4 59 202 185 225
4 186 195 54 228
4 190 133 92 228
4 72 68 24 225
4 138 188 180 211
4 176 187 35 78
4 125 95 135 206
4 124 200 53 222
4 72 24 185 225
4 161 160 158 219
4 79 134 84 222
4 142 160 161 226
4 105 104 103 208
4 196 133 190 228
4 174 177 188 220
4 141 148 147 209
4 44 133 190 196
4 124 136 112 226
4 44 133 92 190
4 125 48 192 135
4 134 79 94 222
4 82 78 95 26
4 97 90 96 209
4 123 110 118 215
4 73 132 68 225
4 169 187 176 206
4 86 121 106 213
4 184 178 42 222
4 155 154 156 208
4 86 122 121 227
4 205 198 132 225
4 49 132 205 198
4 93 132 198 225
4 68 132 117 225
4 200 162 63 222
4 201 116 51 50
4 168 166 167 215
4 136 126 112 219
4 166 145 147 216
4 31 30 89 81
4 53 124 52 200
4 132 49 93 198
4 83 204 184 222
4 74 17 67 228
4 169 57 58 192
4 105 109 108 210
4 96 92 118 216
4 134 203 84 222
4 114 89 128 211
4 169 176 189 206
4 73 72 202 225
4 189 143 179 224
4 80 173 38 37
4 95 125 137 206
4 150 179 153 214
4 73 15 68 132
4 24 23 165 68
4 73 202 205 225
4 203 83 84 222
4 96 46 45 193
4 156 158 159 210
4 123 8 9 67
4 133 123 92 228
4 83 203 204 222
4 59 146 60 198
4 163 165 175 218
4 177 161 158 219
4 122 117 113 218
4 29 87 80 28
4 153 180 154 212
4 15 68 132 117
4 47 191 46 90
4 13 12 70 86
4 145 55 190 54
4 88 10 11 69
4 120 89 126 220
4 164 146 163 221
4 142 61 199 62
4 161 162 142 226
4 196 71 133 228
4 195 186 74 228
4 183 171 139 213
4 127 86 106 213
4 73 205 132 225
4 113 93 116 221
4 195 74 71 228
4 202 72 185 225
4 112 126 108 219
4 159 175 172 227
4 145 168 186 228
4 168 167 182 215
4 121 122 109 227
4 41 144 40 76
4 51 199 52 91
4 21 22 70 139
4 196 195 71 228
4 124 112 91 226
4 119 115 99 214
4 110 102 100 217
4 129 137 115 224
4 123 131 110 215
4 72 185 2 202
4 38 39 138 75
4 164 61 60 201
4 144 177 174 220
4 141 56 57 191
4 27 95 78 26
4 37 143 36 77
4 65 14 13 130
4 55 147 193 56
4 104 114 119 212
4 146 185 165 225
4 102 106 103 223
4 117 122 130 218
4 170 155 171 223
4 66 18 19 182
4 132 93 117 225
4 167 151 170 217
4 79 42 41 178
4 174 39 40 81
4 187 7 85 194
4 140 20 19 69
4 48 192 47 125
4 195 3 74 186
4 124 134 94 222
4 165 181 175 218
4 31 120 32 76
4 4 134 203 84
4 83 204 6 184
4 64 20 21 183
4 196 190 195 228
4 79 84 83 222
4 162 62 200 63
4 22 23 65 181
4 50 93 49 198
4 71 133 1 196
4 68 15 14 117
4 16 72 202 73
4 67 17 18 168
4 200 204 203 222
4 92 45 44 190
4 202 198 205 225
4 5 82 197 135
4 205 16 202 73
4 184 162 178 222
4 73 68 72 225
4 67 71 74 228
4 28 129 77 27
4 33 32 94 79
4 36 176 35 78
4 128 75 30 29
4 73 205 0 132
4 34 84 203 83
4 9 10 131 66
4 127 11 12 64
4 204 34 203 83
4 85 194 43 82
4 74 71 25 195
4 53 4 134 203
4 72 2 16 202
4 84 203 4 34
4 35 187 7 85
4 7 187 58 194
4 71 196 25 195
4 194 43 82 197
4 63 6 204 184
4 1 8 133 71
4 2 24 185 72
4 185 59 2 202
4 186 195 3 54
4 204 6 34 83
4 7 85 194 43
4 133 44 1 196
4 135 5 82 26
4 134 4 33 84
4 74 25 3 195
4 184 6 83 42
4 132 205 0 49
4 3 17 74 186
4 82 43 5 197
4 48 5 197 135
4 1 71 196 25
4 0 15 73 132
4 205 0 16 73
4 222 120 220 76
4 222 220 120 136
4 69 127 213 64
4 69 213 127 88
4 211 39 174 81
4 211 174 39 138
4 218 23 68 165
4 218 68 23 65
4 42 222 79 83
4 79 222 42 178
4 228 17 168 186
4 228 168 17 67

CELL_TYPES 1131
1
1
1
1
1
1
1
1
3
3
3
3
3
3
3
3
3
3
3
3
3
3
3
3
3
3
3
3
3
3
3
3
3
3
3
3
3
3
3
3
3
3
3
3
3
3
3
3
3
3
3
3
3
3
3
3
3
3
3
3
3
3
3
3
3
3
3
3
3
3
3
3
3
3
3
3
5
5
5
5
5
5
5
5
5
5
5
5
5
5
5
5
5
5
5
5
5
5
5
5
5
5
5
5
5
5
5
5
5
5
5
5
5
5
5
5
5
5
5
5
5
5
5
5
5
5
5
5
5
5
5
5
5
5
5
5
5
5
5
5
5
5
5
5
5
5
5
5
5
5
5
5
5
5
5
5
5
5
5
5
5
5
5
5
5
5
5
5
5
5
5
5
5
5
5
5
5
5
5
5
5
5
5
5
5
5
5
5
5
5
5
5
5
5
5
5
5
5
5
5
5
5
5
5
5
5
5
5
5
5
5
5
5
5
5
5
5
5
5
5
5
5
5
5
5
5
5
5
5
5
5
5
5
5
5
5
5
5
5
5
5
5
5
5
5
5
5
5
5
5
5
5
5
5
5
5
5
5
5
5
5
5
5
5
5
5
5
5
5
5
5
5
5
5
5
5
5
5
5
5
5
5
5
5
5
5
5
5
5
5
5
5
5
5
5
5
5
5
5
5
5
5
5
5
5
5
5
5
5
5
5
5
5
5
5
5
5
5
5
5
5
5
5
5
5
5
5
5
5
5
5
5
5
5
5
5
5
5
5
5
5
5
5
5
5
5
5
5
5
5
5
5
5
5
5
5
5
5
5
5
5
5
5
5
5
5
5
5
5
5
5
5
5
5
5
5
5
5
5
5
5
5
5
5
5
5
5
5
5
5
5
5
5
5
5
5
5
5
5
5
5
5
5
5
5
5
5
5
5
5
5
5
5
5
5
5
5
5
5
5
5
5
5
5
5
5
5
5
5
5
5
5
5
5
5
5
5
5
5
5
5
5
5
5
5
5
5
5
5
5
5
5
5
5
5
5
5
5
5
5
5
5
5
5
5
5
5
5
5
5
5
5
5
5
5
5
5
5
5
5
5
5
5
5
10
10
10
10
10
10
10
10
10
10
10
10
10
10
10
10
10
10
10
10
10
10
10
10
10
10
10
10
10
10
10
10
10
10
10
10
10
10
10
10
10
10
10
10
10
10
10
10
10
10
10
10
10
10
10
10
10
10
10
10
10
10
10
10
10
10
10
10
10
10
10
10
10
10
10
10
10
10
10
10
10
10
10
10
10
10
10
10
10
10
10
10
10
10
10
10
10
10
10
10
10
10
10
10
10
10
10
10
10
10
10
10
10
10
10
10
10
10
10
10
10
10
10
10
10
10
10
10
10
10
10
10
10
10
10
10
10
10
10
10
10
10
10
10
10
10
10
10
10
10
10
10
10
10
10
10
10
10
10
10
10
10
10
10
10
10
10
10
10
10
10
10
10
10
10
10
10
10
10
10
10
10
10
10
10
10
10
10
10
10
10
10
10
10
10
10
10
10
10
10
10
10
10
10
10
10
10
10
10
10
10
10
10
10
10
10
10
10
10
10
10
10
10
10
10
10
10
10
10
10
10
10
10
10
10
10
10
10
10
10
10
10
10
10
10
10
10
10
10
10
10
10
10
10
10
10
10
10
10
10
10
10
10
10
10
10
10
10
10
10
10
10
10
10
10
10
10
10
10
10
10
10
10
10
10
10
10
10
10
10
10
10
10
10
10
10
10
10
10
10
10
10
10
10
10
10
10
10
10
10
10
10
10
10
10
10
10
10
10
10
10
10
10
10
10
10
10
10
10
10
10
10
10
10
10
10
10
10
10
10
10
10
10
10
10
10
10
10
10
10
10
10
10
10
10
10
10
10
10
10
10
10
10
10
10
10
10
10
10
10
10
10
10
10
10
10
10
10
10
10
10
10
10
10
10
10
10
10
10
10
10
10
10
10
10
10
10
10
10
10
10
10
10
10
10
10
10
10
10
10
10
10
10
10
10
10
10
10
10
10
10
10
10
10
10
10
10
10
10
10
10
10
10
10
10
10
10
10
10
10
10
10
10
10
10
10
10
10
10
10
10
10
10
10
10
10
10
10
10
10
10
10
10
10
10
10
10
10
10
10
10
10
10
10
10
10
10
10
10
10
10
10
10
10
10
10
10
10
10
10
10
10
10
10
10
10
10
10
10
10
10
10
10
10
10
10
10
10
10
10
10
10
10
10
10
10
10
10
10
10
10
10
10
10
10
10
10
10
10
10
10
10
10
10
10
10
10
10
10
10
10
10
10
10
10
10
10
10
10
10
10
10
10
10
10
10
10
10
10
10
10
10
10
10
10
10
10
10
10
10
10
10
10
10
10
10
10
10
10
10
10
10
10
10
10
10
10
10
10
10
10
10
10
10
10
10
10
10
10
10
10
10
10
10
10
10
10
10
10
10
10
10
10
10
10
10
10
10
10
10
10
10
10
10
10
10
10
10
10
10
10
10
10
10
10
10
10
10
10
10
10
10
10
10
10
10
10
